<svg xmlns="http://www.w3.org/2000/svg" viewBox="0 0 200 150" role="img" aria-label="מנוי">
  <!-- EASYCOINS product art. Machined octagonal tokens, struck with the brand Z
       and cut on the same nine-degree shear as the mark, so every thumbnail in
       the catalogue belongs to one family and matches the artwork the app
       renders inline. Original geometry; no publisher property is depicted. -->
  <defs>
    <linearGradient id="g" x1="0.15" y1="0" x2="0.7" y2="1">
      <stop offset="0" stop-color="#F4E6C3"/><stop offset="0.42" stop-color="#D4B46A"/>
      <stop offset="0.78" stop-color="#A9884A"/><stop offset="1" stop-color="#E6CB86"/>
    </linearGradient>
    <linearGradient id="e" x1="0" y1="0" x2="0" y2="1">
      <stop offset="0" stop-color="#A9884A"/><stop offset="1" stop-color="#6B5228"/>
    </linearGradient>
    <linearGradient id="s" x1="0" y1="0" x2="0.55" y2="1">
      <stop offset="0" stop-color="#FFFFFF" stop-opacity="0.5"/>
      <stop offset="0.5" stop-color="#FFFFFF" stop-opacity="0.05"/>
      <stop offset="1" stop-color="#FFFFFF" stop-opacity="0"/>
    </linearGradient>
    <linearGradient id="b" x1="0" y1="0" x2="0.4" y2="1">
      <stop offset="0" stop-color="#A8C0FF"/><stop offset="1" stop-color="#2E5FF0"/>
    </linearGradient>
    <radialGradient id="p" cx="50%" cy="74%" r="55%">
      <stop offset="0" stop-color="#D4B46A" stop-opacity="0.20"/>
      <stop offset="1" stop-color="#D4B46A" stop-opacity="0"/>
    </radialGradient>
  </defs>
  <ellipse cx="100" cy="122" rx="56" ry="20" fill="url(#p)"/>
  <g opacity="1">
    <polygon points="138.8,109.3 116.1,122.5 83.9,122.5 61.2,109.3 61.2,90.7 83.9,77.5 116.1,77.5 138.8,90.7" fill="url(#e)"/>
    <polygon points="138.8,97.3 116.1,110.5 83.9,110.5 61.2,97.3 61.2,78.7 83.9,65.5 116.1,65.5 138.8,78.7" fill="url(#g)"/>
    <polygon points="131.8,95.6 113.2,106.5 86.8,106.5 68.2,95.6 68.2,80.4 86.8,69.5 113.2,69.5 131.8,80.4" fill="none" stroke="#6B5228" stroke-opacity="0.34" stroke-width="1.6"/>
    <polygon points="136.9,96.9 115.3,109.4 84.7,109.4 63.1,96.9 63.1,79.1 84.7,66.6 115.3,66.6 136.9,79.1" fill="url(#s)"/>
    <g transform="translate(78.6,68.7) scale(0.669,0.602) skewX(-9)" fill="#5A390A" fill-opacity="0.66"><path d="M14 12h10v40H14ZM14 12h34v10H14ZM14 27h26v10H14ZM14 42h34v10H14Z"/></g>
  </g>
  <path d="M46 88 A54 31 0 0 1 154 88" fill="none" stroke="url(#b)" stroke-width="2.5" stroke-dasharray="9 7"/>
</svg>
